<svg xmlns="http://www.w3.org/2000/svg" xmlns:xlink="http://www.w3.org/1999/xlink" width="766.123046875" height="821.12060546875" viewBox="0 0 766.123046875 821.12060546875" fill="none"><path d="M139.847 2.79141C142.987 -2.70859 152.907 1.29141 157.927 3.19141C171.907 8.49141 184.187 15.3714 197.417 24.1914C226.267 43.4214 250.558 70.0214 265.598 101.641C269.057 108.921 272.034 117.248 274.528 126.621C277.501 137.775 278.108 148.851 276.348 159.851C275.508 165.081 272.238 173.571 266.518 175.561C261.078 177.461 255.218 176.801 250.158 174.401C233.917 166.671 227.037 153.561 216.087 136.771C210.687 128.478 203.627 122.818 194.907 119.791C191.347 118.551 186.427 116.561 184.797 113.011C183.367 109.931 189.017 106.611 191.397 105.361C197.871 101.961 203.257 99.0214 207.557 96.5414C209.837 95.2214 212.437 93.5214 213.447 90.8514C215.567 85.2514 210.617 80.9914 206.117 78.7314C200.984 76.1514 195.781 73.4414 190.507 70.6014C183.717 66.9514 181.897 61.7014 177.317 52.9914C171.671 42.2714 164.751 32.5381 156.557 23.7914C154.484 21.5781 150.217 17.1814 143.757 10.6014C142.364 9.18141 141.037 7.08807 139.777 4.32141C139.722 4.2014 139.681 4.07608 139.655 3.9454C139.63 3.81474 139.62 3.68307 139.626 3.55042C139.632 3.41707 139.654 3.28641 139.691 3.1584C139.729 3.02974 139.781 2.90741 139.847 2.79141Z"   fill="#D4452E" ></path><path d="M391.837 92.2813C389.237 88.2513 384.347 77.7213 392.397 76.0813C396.67 75.2147 400.707 75.8846 404.507 78.0913C408.627 80.4913 412.537 82.5213 415.957 84.6713C431.143 94.218 444.457 102.315 455.897 108.961C464.967 114.231 475.067 119.741 485.277 121.591C499.73 124.211 513.783 122.311 527.437 115.891C543.087 108.521 561.637 97.7313 571.527 91.5013C597.253 75.2746 616.596 63.3646 629.557 55.7713C639.596 49.8913 650.346 43.6313 661.987 39.1213C667.617 36.9513 673.427 37.0113 678.647 39.2013C685.286 41.9879 691.57 45.1213 697.497 48.6013C712.257 57.268 725.147 66.6346 736.166 76.7013C741.913 81.948 747.413 88.4413 752.666 96.1813C758.427 104.671 762.067 115.721 762.527 125.151C763.237 139.711 762.017 150.691 760.517 168.161C759.257 182.831 759.106 198.781 759.666 216.171C761.106 260.141 761.617 306.231 762.617 354.161C762.75 360.301 763.27 377.635 764.177 406.161C766.427 476.961 766.277 547.561 765.906 623.911C765.773 651.385 765.437 676.385 764.897 698.911C764.343 721.765 763.443 743.098 762.197 762.911C761.527 773.701 759.737 784.461 755.846 795.021C751.156 807.741 742.087 816.761 728.897 819.541C721.137 821.168 714.07 821.538 707.697 820.651C699.577 819.521 689.967 817.751 680.856 815.021C666.697 810.781 652.17 805.615 637.277 799.521C600.89 784.648 574.82 773.511 559.067 766.111C548.24 761.025 537.793 756.231 527.726 751.731C523.32 749.765 520.03 747.668 517.856 745.441C513.737 741.241 515.877 735.691 521.247 734.251C523.8 733.571 526.193 733.411 528.427 733.771C536.72 735.118 542.56 735.998 545.947 736.411C553.297 737.291 562.137 739.381 569.976 740.011C573.117 740.271 579.647 741.021 589.567 742.261C597.807 743.291 610.117 743.931 616.166 744.231C632.786 745.058 648.863 744.665 664.397 743.051C670.217 742.441 675.967 741.191 680.797 739.511C687.476 737.191 689.166 731.191 691.557 723.781C693.017 719.261 694.967 710.718 697.406 698.151C699 689.971 700.67 678.221 702.416 662.901C705.09 639.521 707.06 613.858 708.327 585.911C709.64 556.951 710.523 528.451 710.976 500.411C711.177 488.151 711.18 454.705 710.987 400.071C710.96 393.165 710.78 383.721 710.447 371.741C710.117 359.971 710.267 345.861 709.757 333.971C709.423 326.191 709.163 315.738 708.976 302.611C708.79 289.225 708.44 276.778 707.927 265.271C706.906 242.445 706.337 229.991 706.217 227.911C704.397 195.491 701.93 164.161 698.817 133.921C698.55 131.295 697.957 126.208 697.036 118.661C695.797 108.491 690.717 100.121 680.587 96.7113C673.84 94.438 667.123 93.548 660.437 94.0413C630.947 96.2013 603.656 112.161 581.617 132.841C574.403 139.615 566.846 147.891 558.947 157.671C548.153 171.045 540.35 180.828 535.536 187.021C527.177 197.791 514.427 206.951 500.237 203.991C493.737 202.631 487.213 199.615 480.667 194.941C471.827 188.628 462.683 180.181 453.237 169.601C437.15 151.575 422.96 134.598 410.667 118.671C403.34 109.185 397.063 100.388 391.837 92.2813Z"   fill="#65A30D" ></path><path d="M0.926956 225.361C1.47362 223.481 2.99028 222.518 5.47694 222.471C7.64362 222.425 10.2036 223.345 13.157 225.231C16.4436 227.331 19.0603 229.118 21.007 230.591C31.407 238.498 39.7136 244.681 45.9269 249.141C58.107 257.891 71.167 261.321 85.667 257.611C97.187 254.661 105.977 250.291 118.397 244.621C121.924 243.015 125.11 241.731 127.957 240.771C128.27 240.665 128.59 240.638 128.917 240.691C132.844 241.345 134.694 243.658 134.467 247.631C134.167 252.911 131.037 257.641 127.867 262.351C115.88 280.211 103.11 297.185 89.5569 313.271C79.437 325.302 67.167 333.132 51.607 324.792C39.127 318.111 29.2469 306.761 21.917 295.181C13.977 282.635 7.90363 269.131 3.69695 254.671C1.79028 248.111 0.600281 241.788 0.126953 235.701C-0.186386 231.701 0.0802765 228.255 0.926956 225.361Z"   fill="#D4452E" ></path><path d="M385.617 808.001C384.677 804.331 385.437 801.091 386.517 796.571C388.137 789.731 389.257 782.221 390.737 775.981C393.187 765.681 394.347 756.831 396.217 747.381C397.071 743.041 397.934 738.008 398.807 732.281C403.774 699.655 405.854 666.621 405.047 633.181C404.837 624.341 404.007 616.301 403.417 606.161C403.111 600.941 402.197 590.531 400.677 574.931C400.277 570.891 399.417 564.301 395.457 562.811C392.711 561.785 390.347 561.535 388.367 562.061C365.427 568.235 342.747 576.325 320.327 586.331C318.967 586.938 314.824 588.611 307.897 591.351C301.317 593.945 297.277 598.851 295.777 606.071C292.191 623.305 288.964 636.731 286.097 646.351C282.697 657.731 274.127 682.271 258.837 681.621C252.707 681.351 246.827 675.291 243.557 670.301C239.764 664.488 236.704 659.061 234.377 654.021C229.837 644.188 225.707 634.565 221.987 625.151C220.747 622.025 218.837 619.271 216.257 616.891C214.644 615.398 211.96 614.061 208.207 612.881C197.6 609.541 184.827 604.835 169.887 598.761C166.167 597.248 162.587 595.571 159.147 593.731C158.965 593.634 158.795 593.518 158.637 593.384C158.48 593.251 158.338 593.102 158.212 592.938C158.087 592.774 157.98 592.599 157.891 592.413C157.802 592.227 157.734 592.033 157.687 591.831C157.154 589.565 157.59 588.011 158.997 587.171C162.264 585.225 164.727 583.955 166.387 583.361C178.627 578.981 190.537 573.725 202.117 567.591C204.237 566.471 207.234 564.468 211.107 561.581C217.027 557.168 220.98 551.628 222.967 544.961C224.44 540.001 225.4 535.485 225.847 531.411C227.92 512.525 228.054 493.698 226.247 474.931C225.577 468.001 221.177 464.851 214.817 463.271C191.724 457.538 168.72 449.541 145.807 439.281C143.347 438.181 138.297 435.931 136.647 432.481C136.608 432.401 136.576 432.319 136.549 432.234C136.522 432.15 136.502 432.064 136.488 431.976C136.473 431.889 136.465 431.801 136.464 431.712C136.463 431.624 136.467 431.535 136.478 431.447C136.489 431.36 136.507 431.274 136.53 431.188C136.553 431.103 136.583 431.02 136.618 430.938C136.653 430.858 136.695 430.78 136.742 430.705C136.789 430.63 136.84 430.559 136.897 430.491C139.667 427.211 144.627 425.631 148.907 424.171C169.857 417.021 193.137 410.351 212.967 403.471C217.094 402.038 220.49 400.421 223.157 398.621C227.397 395.751 228.137 388.281 228.687 383.151C229.807 372.705 230.404 363.541 230.477 355.661C230.657 335.948 230.67 323.448 230.517 318.161C230.45 315.868 230.694 312.638 231.247 308.471C231.62 305.685 233.127 304.618 235.767 305.271C236.921 305.558 238.267 306.671 239.807 308.611C243.967 313.865 248.071 319.585 252.117 325.771C264.771 345.131 273.497 358.971 278.297 367.291C282.437 374.481 290.067 374.141 297.117 371.551C315.491 364.811 333.344 357.928 350.677 350.901C359.857 347.191 357.937 338.791 355.957 330.681C353.824 321.961 351.267 313.291 348.287 304.671C344.007 292.301 338.827 281.701 326.407 276.021C318.697 272.511 309.687 273.351 302.377 269.121C302.298 269.075 302.224 269.022 302.154 268.961C302.085 268.901 302.022 268.835 301.965 268.763C301.909 268.691 301.86 268.615 301.818 268.534C301.776 268.453 301.743 268.369 301.717 268.281C301.277 266.731 301.667 264.691 303.507 263.561C307.587 261.048 310.337 259.525 311.757 258.991C333.727 250.771 358.117 246.751 381.687 248.681C385.081 248.961 388.854 249.858 393.007 251.371C406.397 256.261 409.417 267.291 410.807 280.041C411.587 287.255 412.527 295.961 413.627 306.161C414.507 314.391 416.517 324.221 427.537 321.541C430.044 320.928 434.071 319.601 439.617 317.561C440.231 317.335 449.057 313.761 466.097 306.841C475.267 303.121 483.257 301.331 493.097 304.511C509.937 309.941 525.777 319.741 533.477 335.861C535.267 339.621 536.647 345.281 535.187 349.411C532.447 357.191 524.177 360.261 516.807 362.281C500.447 366.781 484.037 371.341 468.667 378.161C459.207 382.371 452.447 387.151 449.937 397.571C449.251 400.431 449.354 404.001 450.247 408.281C451.741 415.415 452.954 420.568 453.887 423.741C456.687 433.295 460.621 446.445 465.687 463.191C468.147 471.331 471.947 473.421 480.127 471.791C491.007 469.631 499.857 467.011 511.077 464.171C523.557 461.018 534.424 458.345 543.677 456.151C547.324 455.285 554.311 454.221 564.637 452.961C575.397 451.655 585.081 454.088 593.687 460.261C601.134 465.608 607.607 472.015 613.107 479.481C614.781 481.748 616.094 484.185 617.047 486.791C620.637 496.531 614.497 502.051 606.737 505.961C602.311 508.188 596.791 510.488 590.177 512.861C586.491 514.188 579.407 516.111 568.927 518.631C558.627 521.111 538.797 523.841 524.087 527.221C517.601 528.708 512.491 529.888 508.757 530.761C500.471 532.708 491.717 535.268 482.497 538.441C475.347 540.911 473.097 546.961 472.837 554.241C472.331 568.595 471.591 581.401 470.617 592.661C467.071 633.568 458.451 672.878 444.757 710.591C442.007 718.151 438.397 726.811 436.087 732.091C427.801 751.045 417.741 769.728 405.907 788.141C401.934 794.315 397.277 800.568 391.937 806.901C390.971 808.048 389.761 808.885 388.307 809.411C388.241 809.438 388.173 809.458 388.104 809.471C388.035 809.491 387.965 809.508 387.894 809.521C387.824 809.528 387.754 809.535 387.682 809.541C387.611 809.541 387.54 809.538 387.469 809.531C387.398 809.531 387.327 809.525 387.256 809.511C387.186 809.498 387.117 809.481 387.048 809.461C386.98 809.441 386.912 809.418 386.846 809.391C386.78 809.365 386.715 809.335 386.651 809.301C386.589 809.268 386.527 809.235 386.467 809.201C386.408 809.161 386.351 809.118 386.296 809.071C386.241 809.025 386.188 808.975 386.138 808.921C386.088 808.875 386.041 808.821 385.997 808.761C385.953 808.708 385.911 808.651 385.872 808.591C385.834 808.531 385.799 808.468 385.767 808.401C385.735 808.341 385.707 808.275 385.682 808.201C385.657 808.135 385.635 808.068 385.617 808.001ZM305.417 520.171C307.597 521.031 310.097 521.181 312.917 520.621C318.297 519.548 324.411 517.925 331.257 515.751C354.677 508.305 371.394 503.028 381.407 499.921C388.327 497.768 391.367 493.141 390.527 486.041C389.501 477.295 387.311 463.355 383.957 444.221C382.987 438.701 382.697 434.081 381.177 428.901C378.327 419.191 371.167 419.981 362.627 422.521C344.167 428.028 333.914 431.135 331.867 431.841C328.454 433.015 320.381 436.081 307.647 441.041C302.667 442.981 298.937 445.391 297.527 449.991C296.461 453.478 295.931 457.208 295.937 461.181C295.957 469.068 296.401 476.728 297.267 484.161C298.961 498.608 299.894 506.401 300.067 507.541C300.767 512.181 301.267 518.541 305.417 520.171Z"   fill="#65A30D" ></path><path d="M42.8168 388.491C48.1968 387.281 56.2768 394.321 59.4468 397.951C67.0668 406.691 71.6968 417.311 76.1468 428.941C87.6868 459.091 94.2768 490.091 98.9368 523.071C99.8235 529.331 100.44 534.834 100.787 539.581C101.377 547.511 102.307 555.151 102.657 561.691C103.784 583.104 103.66 603.504 102.287 622.891C101.657 631.821 100.537 646.391 99.1868 656.881C97.0002 673.874 93.9435 690.321 90.0168 706.221C88.5635 712.108 86.3402 718.894 83.3468 726.581C78.8968 738.001 71.1968 749.941 60.4368 756.171C50.8168 761.751 38.8968 761.861 29.2268 756.471C24.1002 753.611 19.3468 748.941 14.9668 742.461C6.58684 730.034 3.19684 715.918 4.79684 700.111C5.84351 689.778 7.04018 680.874 8.38686 673.401C13.5068 644.891 17.8168 621.771 21.9068 596.831C24.8268 579.061 27.1068 555.831 28.3868 542.941C31.7068 509.594 33.3835 481.671 33.4168 459.171C33.4502 433.198 33.4802 419.531 33.5068 418.171C33.6668 409.601 33.8068 402.001 35.8768 395.091C37.0268 391.251 39.0668 389.331 42.8168 388.491Z"   fill="#65A30D" ></path></svg>